<svg viewBox="0 0 800 300" xmlns="http://www.w3.org/2000/svg"><g fill="#fff"><path d="M571.1 223.973h-15.522c-.482-2.574-1.23-4.387-2.252-5.406-1.66-1.66-4.492-2.516-8.404-2.516-3.854 0-6.527.639-8.023 1.926-1.127.965-1.717 2.301-1.717 3.961 0 2.352 3.27 4.229 9.74 5.674 7.391 1.604 12.691 2.996 15.953 4.119.857.322 1.605.59 2.143.855 6.588 3.105 9.85 7.822 9.85 14.135 0 7.707-3.211 13.328-9.582 16.859-.805.432-1.553.805-2.41 1.18-4.119 1.768-8.935 2.674-14.342 2.674-8.082 0-14.615-1.445-19.592-4.283-3.131-1.82-5.471-4.107-7.029-6.865-1.559-2.758-2.338-5.977-2.338-9.672h16.27c0 2.783 1.019 4.98 2.998 6.477 1.984 1.555 5.355 2.359 10.115 2.359 3.588 0 6.262-.754 8.031-2.25 1.395-1.18 2.033-2.467 2.033-3.963 0-2.516-3.205-4.492-9.582-5.887-9.525-2.035-15.521-3.695-17.983-4.875-6.527-3.049-9.74-7.756-9.74-14.293 0-5.24 1.66-9.684 5.084-13.322 4.283-4.551 10.703-6.801 19.217-6.801 7.01 0 12.631 1.02 16.859 2.998.373.158.697.322 1.019.539 3.049 1.654 5.35 3.854 6.891 6.586 1.539 2.724 2.313 5.994 2.313 9.791zm-8.297-37.897c0-.322-.051-.59-.215-.805a1.15 1.15 0 00-.691-.531c-.215-.059-.539-.109-1.021-.166h-2.459v2.998h2.459c.699-.051 1.18-.158 1.445-.426.323-.271.482-.646.482-1.07zm1.287-1.609c.322.432.481.912.481 1.445 0 .748-.266 1.395-.805 1.926-.533.539-1.228.863-2.084.912.373.158.639.324.856.533l1.496 1.984 1.178 1.977h-1.928l-.912-1.604c-.582-1.014-1.065-1.768-1.496-2.141-.051-.051-.107-.109-.215-.16l-1.279-.373h-.965v4.277h-1.609v-10.059h3.479c.217 0 .432.051.59.051.855 0 1.496.109 1.928.268.531.165.961.481 1.285.964z"/><path d="M568.641 188.111a7.765 7.765 0 00-1.019-3.91 7.547 7.547 0 00-2.891-2.891c-1.23-.641-2.518-1.016-3.805-1.016h-.051c-1.285 0-2.566.375-3.795 1.016a7.499 7.499 0 00-2.896 2.891c-.691 1.234-1.066 2.516-1.066 3.91 0 1.338.375 2.617 1.066 3.854a7.236 7.236 0 002.838 2.832 7.672 7.672 0 003.854 1.021h.051a7.71 7.71 0 003.861-1.021c1.228-.689 2.193-1.658 2.834-2.832a7.729 7.729 0 001.019-3.854zm1.552 0a9.159 9.159 0 01-1.236 4.602 8.105 8.105 0 01-3.422 3.422c-1.502.863-2.998 1.236-4.609 1.236h-.051a8.937 8.937 0 01-4.6-1.236c-1.504-.799-2.625-1.926-3.43-3.422a9.137 9.137 0 01-1.229-4.602c0-1.662.373-3.213 1.229-4.715.855-1.496 1.984-2.617 3.48-3.424a10.12 10.12 0 014.549-1.229h.051c1.555 0 3.057.426 4.551 1.229 1.504.807 2.682 1.928 3.48 3.424.857 1.502 1.237 3.053 1.237 4.715zm-91.054-75.633l43.949 73.225h-70.601l-41.965-69.96-31.792-52.938 31.792-19.109 20.016-12.042zm31.906 124.069v30.031H496.43v-3.32a31.266 31.266 0 01-17.127 5.088h-.164c-17.449-.107-31.635-14.35-31.635-31.799 0-17.447 14.186-31.684 31.635-31.791h.164a31.325 31.325 0 0117.127 5.082v-3.479h14.615zm-14.615 3.322v-6.637c-1.553-8.029-8.67-14.135-17.127-14.135h-.164c-9.578.059-17.342 7.873-17.342 17.449 0 9.584 7.764 17.398 17.342 17.506h.164c8.457.001 15.574-6.154 17.127-14.183zm-54.008-3.322v30.031h-14.609v-3.32c-4.981 3.213-10.814 5.088-17.132 5.088h-.158c-17.449-.107-31.634-14.35-31.634-31.799 0-17.447 14.184-31.684 31.634-31.791h.158c6.319 0 12.15 1.877 17.132 5.082v-24.135h14.609zm-14.609 3.322v-6.637c-1.553-8.029-8.677-14.135-17.132-14.135h-.158c-9.583.059-17.342 7.873-17.342 17.449 0 9.584 7.759 17.398 17.342 17.506h.158c8.455.001 15.579-6.154 17.132-14.183zM410.522 156.9l17.234 28.803h-70.55l-39.177-65.195-1.711-2.839 1.711-1.014 50.154-30.195zm-53.259 47.854h15.896v61.824h-15.896zm0-18.734h15.896v13.969h-15.896zm-7.283 50.527v30.031h-14.609v-3.32c-4.975 3.213-10.863 5.088-17.183 5.088h-.159c-17.449-.107-31.634-14.35-31.634-31.799 0-17.447 14.185-31.684 31.634-31.791h.159c6.319 0 12.207 1.877 17.183 5.082v-24.135h14.609zm-14.609 3.322v-6.637c-1.553-8.029-8.67-14.135-17.183-14.135h-.159c-9.583.059-17.341 7.873-17.341 17.449 0 9.584 7.758 17.398 17.341 17.506h.159c8.512.001 15.63-6.154 17.183-14.183zm-17.342-78.258l14.451 24.092h-70.6l-7.923-13.223 51.865-31.151zm-37.363 74.936v30.031h-14.609v-3.32c-4.982 3.213-10.87 5.088-17.183 5.088h-.165c-17.392-.107-31.577-14.35-31.577-31.799 0-17.447 14.185-31.684 31.577-31.791h.165c6.313 0 12.201 1.877 17.183 5.082v-3.479h14.609zm-14.609 3.322v-6.637c-1.553-8.029-8.671-14.135-17.183-14.135h-.165c-9.526.059-17.284 7.873-17.284 17.449 0 9.584 7.758 17.398 17.284 17.506h.165c8.512.001 15.63-6.154 17.183-14.183z"/></g></svg>