<svg viewBox="0 0 800 300" xmlns="http://www.w3.org/2000/svg"><g clip-rule="evenodd" fill="#fff" fill-rule="evenodd"><path d="M654.444 193.858c-6.275-3.278-7.245-12.548-7.105-35.076l.143-34.531-11.902-.02 2.672-6.395h9.23v-16.354l22.102-8.177-.01 23.985 10.131.02-2.672 7.083-7.449-.01-.04 59.76c.486 4.817 2.105 7.651 4.413 9.714h-19.513zm-523.63-48.644c1.689 4.626 5.506 9.399 2.79 14.759-1.322 5.434-6.463 9.841-11.896 10.721-5.655.514-11.089-.44-15.275-3.892-3.01-15.715 3.378-30.254 15.789-38.919z"/><path d="M152.733 193.092c-2.827 9.509-30.915 3.268-39.727-12.337 11.566 1.285 24.599-8.959 24.82-20.635zm11.492-1.23c1.285-.57 3.875-1.855 4.516-4.608l-30.218-65.539c-2.019-.257-3.488-.441-6.057 1.395zm13.586-14.227c12.851-19.46 2.02-51.404-25.665-55.883zm303.618-57.129c4.048-3.4 11.174-3.481 15.787-1.295 1.944.973 3.806 2.268 5.02 3.968l-8.905 13.844c-1.133-.892-1.945-1.295-3.401-2.023-4.412-1.904-9.068-.79-11.74 1.618v40.4c-.061 6.984 1.154 13.358 4.777 16.679h-20.24c-4.211-3.238-5.263-8.42-5.667-12.955l-.162-53.717c.181-4.352-.932-6.275-2.672-8.703l20.969.081c1.699 1.214 1.781 3.319 2.672 4.939zm25.584 13.278c-.162-5.101.972-11.212-2.367-15.623h19.451c1.295.97 2.024 2.589 2.428 4.129 1.053 1.375.973 3.318 1.457 4.937l.163 57.24c.81 3.4 2.104 6.841 4.615 9.512l-20.808.042c-6.801-6.578-4.574-17.406-5.1-28.58zm30.767.569c2.104-5.831 8.662-8.745 13.439-11.902 7.286-2.673 15.301-9.311 23.478-3.886 6.801 4.453 12.793 9.471 17.083 16.355 1.052 2.67 1.539 5.666 2.267 8.499 0 3.806.809 6.64.728 10.444a96.85 96.85 0 010 11.902c-.243 6.88-3.482 13.033-8.905 17.81-8.098 7.207-18.298 15.384-29.309 9.798-9.876-4.617-21.535-13.764-20.807-26.313-.405-8.905-.809-16.598.405-25.261.486-2.508.243-5.262 1.621-7.446zm20.238 40.479c.973 3.562 2.834 7.934 7.125 8.42 2.51.081 4.372-2.024 5.829-3.806 4.535-8.905 3.886-18.621 3.886-28.74-1.457-7.529.324-17.812-7.772-22.427-2.832-1.053-5.019.891-6.801 2.671-3.158 4.778-3.522 10.242-3.724 16.315-1.052 9.716.082 17.772 1.457 27.567zm51.169 19.026c-6.275-3.278-7.245-12.548-7.105-35.076l.142-34.531-11.902-.02 2.673-6.395h9.229v-16.354l22.103-8.177-.01 23.985 10.131.02-2.672 7.083-7.449-.01-.041 59.76c.486 4.817 2.105 7.651 4.413 9.714h-19.512zm-202.079-66.833c-.132-4.36-.932-6.275-2.672-8.703l20.968.081c1.7 1.214 1.781 3.319 2.672 4.939l3.562-2.836c4.048-3.4 11.172-3.481 15.787-1.295 1.944.973 3.806 2.268 5.02 3.968l-8.905 13.844c-1.135-.892-1.944-1.295-3.401-2.023-4.412-1.904-9.068-.79-11.74 1.618v40.4c-.06 6.984 1.155 13.358 4.778 16.679h-20.241c-4.211-3.238-5.409-8.062-5.667-12.955zm-158.604 21.253l-7.663 15.673c-5.202 9.251-12.501 20.594-23.7 23.413-4.335 1.517-8.165.145-12.357-.145l-13.511 22.11c1.011 1.085 2.437 2 3.829 2.53 23.773 9.069 33.347-.687 56.76-53.58l22.11 47.113h29.447l-13.91-31.794 7.876-16.438 21.75 47.51 28.18.181-49.317-108.389-22.717 11.291 17.802 40.446-7.804 15.896-32.625-70.433-23.935 12.193zm90.515 19.106c.568-7.852 4.858-15.221 12.145-19.186 7.204-4.453 15.625-6.236 23.074-10.122 1.295-1.052 2.915-2.347 2.995-4.048.081-2.105-.972-3.725-2.834-4.454-11.334-2.429-20.726 4.695-28.984 11.739 1.052-5.182 1.862-10.848 4.29-15.706 1.214-1.295 1.942-3.076 3.562-4.048 8.016-3.967 18.055-5.099 27.042-4.453 7.367.485 14.168 5.748 16.678 12.468 1.295 3.158 1.214 6.72 1.457 9.958l.082 43.881c.081 3.806 1.862 7.368 4.129 10.444h-20.97c-2.51-2.267-3.745-5.101-4.452-8.663-5.869 5.181-18.116 12.874-25.422 7.773-7.57-3.4-14.492-14.815-12.792-25.583zm37.16-15.261c-.161-3.036-2.347-3.359-3.886-3.359-5.019.728-9.34 4.928-11.739 9.228-2.146 3.847-2.652 7.085-2.834 10.444-.02 3.624-.243 6.315 1.214 9.068.809 1.781 2.592 2.592 4.292 3.076 3.238.648 6.235-.242 8.744-1.942 5.91-3.32 4.857-9.958 4.939-15.868zm313.083 31.534c1.052 1.077 1.578 2.346 1.578 3.809 0 1.504-.529 2.795-1.587 3.871-1.058 1.071-2.334 1.605-3.826 1.605-1.498 0-2.777-.533-3.835-1.596-1.064-1.064-1.597-2.357-1.597-3.88 0-1.469.523-2.738 1.57-3.809 1.064-1.094 2.351-1.641 3.862-1.641 1.492 0 2.77.547 3.835 1.641zm.811-.838c-1.284-1.284-2.833-1.926-4.646-1.926-1.731 0-3.237.595-4.522 1.784-1.368 1.273-2.051 2.869-2.051 4.789 0 1.849.633 3.406 1.9 4.674 1.266 1.266 2.825 1.9 4.673 1.9 1.79 0 3.323-.618 4.602-1.855 1.314-1.278 1.971-2.851 1.971-4.718 0-1.814-.643-3.364-1.927-4.648zm-3.834 4.148c-.25.178-.598.267-1.044.267h-.74v-2.114h.464c.475 0 .844.051 1.106.152.392.155.589.431.589.829-.001.399-.126.687-.375.866zm-1.784 1.578h.4l.419.027c.291.017.508.056.651.116.262.101.44.279.536.535.059.155.098.452.115.892.018.44.057.775.116 1.008h1.819l-.062-.206a1.101 1.101 0 01-.049-.214 1.92 1.92 0 01-.013-.214v-.651c0-.743-.214-1.287-.643-1.632-.231-.184-.577-.324-1.034-.42.499-.053.92-.217 1.262-.49.342-.274.513-.717.513-1.329 0-.803-.324-1.382-.972-1.74-.381-.208-.86-.332-1.436-.374a60.578 60.578 0 00-1.503-.014c-.9-.003-1.577-.005-2.029-.005v7.287h1.909v-2.576z"/></g></svg>