<svg viewBox="0 0 800 300" xmlns="http://www.w3.org/2000/svg"><path d="M577.766 122.87c-5.925 0-10.816-4.891-10.816-10.821s4.891-10.821 10.816-10.821c6.078 0 10.821 4.743 10.821 10.821.001 5.93-4.891 10.821-10.821 10.821m-305.302 69.665h19.192l2.267-57.718 19.463 34.26h10.397l18.394-34.659 2.533 58.118h20.128l-4.134-88.908h-19.197l-22.656 41.719-23.193-41.719h-19.064zm154.49-18.931c-1.422 1.069-3.689 2.333-6.8 3.802-3.111 1.463-7.153 2.2-12.131 2.2-5.065 0-9.041-1.269-11.926-3.801-2.891-2.533-4.38-5.485-4.467-8.862h44.518v-3.198c0-5.244-.665-10.069-1.995-14.464-1.335-4.4-3.315-8.176-5.935-11.333-2.62-3.152-5.843-5.618-9.665-7.393-3.817-1.781-8.263-2.666-13.328-2.666s-9.593.911-13.594 2.732c-3.996 1.822-7.378 4.242-10.13 7.26-2.758 3.024-4.866 6.554-6.329 10.601a36.616 36.616 0 00-2.2 12.591c0 4.978.773 9.532 2.333 13.666 1.55 4.129 3.817 7.665 6.795 10.596 2.978 2.932 6.6 5.224 10.862 6.866 4.267 1.642 9.066 2.466 14.398 2.466 4.001 0 7.552-.384 10.663-1.136 3.111-.757 5.802-1.622 8.069-2.599 2.262-.977 4.109-1.975 5.526-2.998 1.422-1.023 2.492-1.755 3.203-2.2zm-35.323-18.925c0-1.335.287-2.686.865-4.068.578-1.376 1.422-2.64 2.533-3.796 1.11-1.156 2.512-2.108 4.2-2.865 1.689-.757 3.643-1.136 5.864-1.136 2.22 0 4.134.379 5.73 1.136 1.601.757 2.937 1.709 4.001 2.865s1.867 2.42 2.4 3.796c.532 1.381.798 2.732.798 4.068zm109.645 37.856h58.481V176.07h-38.353v-72.444h-20.128zm66.897 0h19.192v-62.518h-19.191v62.518zm84.355-84.774c-2.845-2.4-5.997-4.088-9.46-5.065-3.469-.977-6.892-1.468-10.269-1.468-3.193 0-6.329.512-9.394 1.535s-5.797 2.579-8.202 4.666c-2.4 2.088-4.329 4.728-5.792 7.93-1.468 3.198-2.205 7.02-2.205 11.461v3.198h-10.125v15.063h10.125v47.455h19.059V145.08h14.802v-15.063h-14.802v-3.464c0-3.111.803-5.51 2.405-7.199 1.596-1.683 3.73-2.533 6.396-2.533 1.688 0 3.331.266 4.932.798a16.068 16.068 0 014.4 2.267zm-166.172 68.11c-1.243.89-2.574 1.668-3.996 2.333s-3.111 1.003-5.065 1.003c-2.579 0-4.467-.824-5.664-2.471-1.202-1.642-1.801-3.975-1.801-6.994V145.08h16.132v-15.063H469.83v-16.751h-19.192v16.751h-9.895v15.063h9.895v23.592c0 3.914.399 7.465 1.197 10.668.803 3.198 2.133 5.93 4.001 8.197 1.862 2.267 4.308 4.042 7.327 5.331 3.024 1.284 6.759 1.934 11.2 1.934 7.107 0 13.686-2.4 19.729-7.199zm212.455-2.267c-1.427 1.069-3.694 2.333-6.8 3.802-3.116 1.463-7.153 2.2-12.131 2.2-5.07 0-9.046-1.269-11.931-3.801-2.886-2.533-4.38-5.485-4.467-8.862H708v-3.198c0-5.244-.66-10.069-1.995-14.464-1.33-4.4-3.31-8.176-5.93-11.333-2.62-3.152-5.848-5.618-9.665-7.393-3.822-1.781-8.263-2.666-13.328-2.666s-9.598.911-13.599 2.732c-3.996 1.822-7.373 4.242-10.131 7.26-2.753 3.024-4.861 6.554-6.329 10.601a36.735 36.735 0 00-2.2 12.591c0 4.978.778 9.532 2.333 13.666 1.555 4.129 3.822 7.665 6.8 10.596 2.973 2.932 6.6 5.224 10.862 6.866 4.267 1.642 9.061 2.466 14.398 2.466 3.996 0 7.547-.384 10.657-1.136 3.116-.757 5.802-1.622 8.069-2.599s4.108-1.975 5.526-2.998c1.428-1.023 2.492-1.755 3.203-2.2zm-35.329-18.925c0-1.335.286-2.686.87-4.068.573-1.376 1.417-2.64 2.533-3.796 1.105-1.156 2.512-2.108 4.201-2.865 1.683-.757 3.638-1.136 5.863-1.136 2.215 0 4.129.379 5.73 1.136s2.932 1.709 4.001 2.865c1.064 1.156 1.862 2.42 2.395 3.796.537 1.381.798 2.732.798 4.068zm-509.345-31.477c15.099 19.99 24.057 44.887 24.057 71.891 0 6.513-.527 12.904-1.535 19.141h43.715c3.801 0 6.882-3.09 6.882-6.902V86.476c0-4.502-4.242-7.833-8.585-6.687-26.104 6.892-48.699 22.446-64.534 43.413" fill="#fff"/><g fill="#f9f9fa"><path d="M131.613 214.231a120.363 120.363 0 01-1.535-19.141c0-26.999 8.964-51.901 24.058-71.891-15.835-20.967-38.43-36.521-64.534-43.408-4.344-1.146-8.585 2.18-8.585 6.682v120.86c0 3.807 3.085 6.897 6.887 6.897h43.709z"/><path d="M154.137 123.202c-15.099 19.99-24.057 44.887-24.057 71.891 0 6.513.527 12.904 1.535 19.141h45.045a119.875 119.875 0 001.535-19.141c0-27.005-8.959-51.901-24.058-71.891"/></g></svg>