<svg viewBox="0 0 800 300" xmlns="http://www.w3.org/2000/svg"><g fill="#fff"><path d="M307.836 231.795c-1.27 0-2.54-.635-3.175-1.905-3.174-4.444 2.54-17.777 9.524-27.301 3.174-3.809 8.888-10.158 13.968-9.523 1.27 0 3.174 1.27 3.174 4.444-.635 10.159-14.603 34.92-23.491 34.285m-24.761-40.633l1.27-3.81c5.079-11.428 13.968-30.475 22.221-31.109 1.27 0 1.27.635 1.905.635 4.444 5.079-18.412 34.919-29.205 43.807 1.269-1.905 3.809-8.889 3.809-9.523m81.266-38.729h-9.524s-17.777 40.634-18.412 41.903c-.635-.635-1.27-1.905-1.905-2.54-1.905-1.905-4.444-3.175-9.523-3.175-11.428 1.27-19.682 12.698-27.936 23.491-6.984 10.158-13.968 21.586-22.221 19.682-1.27 0-1.905-.635-2.54-1.27-3.174-4.444 3.175-19.047 3.175-19.047 26.665-22.857 43.173-50.157 37.459-58.411-1.27-1.905-3.174-3.174-6.349-3.174-21.586 0-35.554 43.808-40.633 59.046-1.27 3.174-1.905 5.079-1.905 5.079-5.714 5.714-14.603 12.063-15.872 12.698-1.27.635-3.174 2.54-1.905 3.174 1.27.635 3.809-.635 4.444-1.27 1.27-.635 6.984-3.174 11.428-6.984 0 7.619 1.905 14.603 10.793 15.238 7.618.635 12.698-3.809 15.872-6.349 0 0 3.81-3.174 4.445-3.809.635 8.253 6.349 11.428 12.698 10.793 5.08-.635 8.889-3.809 13.333-7.619l2.54-2.539c.635 3.174 3.175 9.523 11.428 9.523 11.428 0 19.047-11.428 20.951-17.142.635-1.27.635-1.905 0-2.54s-1.905 0-2.539 1.905c-3.174 5.714-8.253 10.159-12.698 12.063-1.27.635-4.444 1.27-5.079-.635-1.27-2.539 0-7.619 4.444-18.412zm127.615 50.791c-3.175 12.698-14.603 30.475-24.126 28.57-1.27-.635-2.54-1.27-3.174-3.174-2.54-6.984 3.809-24.761 12.698-32.38 3.809-3.809 7.619-5.079 11.428-3.809 3.808.635 4.443 4.445 3.174 10.793m-1.27-15.872c-3.81-.635-8.889.635-10.159 1.27s-2.539 1.27-4.444 2.54l3.174-6.349h-10.159s-6.984 18.412-13.967 33.649l-15.872 35.554-3.175 6.984h10.159l5.079-12.063 6.984-15.238c0-.635.635-2.539 1.27-3.174 1.905 3.174 5.714 4.444 8.888 5.079 13.968 1.905 29.205-13.333 33.015-29.205 1.269-9.523-2.54-17.142-10.793-19.047m98.408 18.412c1.905-3.809 8.254-13.967 13.333-13.967 1.905 0 2.539.635 3.174 1.905 1.905 5.714-6.984 14.603-19.047 17.142 1.27-2.54 2.54-4.445 2.54-5.08m22.857 16.507c-.635-.635-3.175 1.905-4.445 3.175-3.174 3.174-6.349 5.714-13.332 5.714-3.174 0-5.714-.635-7.619-3.174-2.539-2.54-2.539-6.984-1.27-10.159 0-.635.635-1.27.635-1.905 1.27 0 1.905-.635 2.539-.635 18.412-5.079 24.761-16.507 22.857-22.856-.635-3.175-3.809-5.08-8.254-5.08-12.063 0-21.586 10.159-27.3 22.222-6.984 14.603-14.603 24.126-25.396 21.586-3.174-.635-5.714-3.809-6.349-7.619-1.905-10.793 10.158-33.649 19.047-32.379 3.174.635 3.809 2.54 4.444 3.174-.635 0-2.539.635-3.174 1.27-2.539 1.27-3.174 3.174-1.905 5.079 1.905 3.174 7.619 3.174 10.158-.635 1.905-3.174 1.27-6.349-.635-8.888-1.27-1.905-4.444-3.81-7.619-3.81-13.333 0-22.856 12.063-28.57 24.761-5.079 10.793-12.697 21.586-19.682 20.317-5.714-.635-1.27-8.253.635-12.698 0 0 10.159-23.491 14.603-32.38H521.16c-1.905 3.81-10.158 21.587-12.063 25.396-3.81 7.619-7.619 13.968-14.603 17.142-1.905 1.27-3.174 1.905-2.54 3.174.635.635 6.349 0 12.063-4.444 0 0-.635 8.888 9.524 9.523 4.444 0 10.159 0 20.951-13.967.635 16.507 24.761 20.317 39.999 1.905 1.27 5.079 6.349 12.063 15.872 12.063 10.793-.635 17.777-5.714 20.951-10.793 1.272-2.539 1.272-4.444.637-5.079m-231.737-21.586c-10.159 5.714-15.872 14.603-12.698 25.396 4.444 13.967 23.491 23.491 41.903 20.317 13.333-1.905 24.761-7.619 31.745-16.507 6.349-7.619 8.253-17.142 5.714-25.396-3.174-9.523-7.618-15.237-12.698-21.586-4.444-5.714-8.888-10.793-11.428-19.047-2.54-6.984 0-12.063 3.174-15.238 3.809-4.444 15.238-12.698 30.475-6.984 5.714 1.905 8.888 6.349 10.158 10.159 1.27 5.08-.635 10.159-4.444 12.698-1.905 1.27-2.539 2.54-2.539 3.809.635.635 1.905 1.27 4.444 0 7.619-3.174 12.063-10.793 9.523-17.777-3.174-11.428-19.047-18.412-34.284-15.872-22.221 3.174-33.014 17.142-27.935 34.919 2.54 7.619 6.984 13.968 11.428 19.682s8.888 11.428 10.793 19.047c5.714 18.412-12.063 29.84-26.03 32.38-15.873 2.539-29.84-4.445-32.38-16.507-1.905-8.254 0-17.142 7.619-22.222 2.539-1.27 5.079-2.54 4.444-4.444.634-.002-3.175 1.268-6.984 3.173m149.2-22.221c2.539 0 5.079-1.27 6.349-3.174 1.27-1.905.635-3.81 0-5.08-.635-.635-1.905-1.27-3.809-1.27-4.444.635-7.618 3.81-6.984 6.349 0 1.905 1.905 3.175 4.444 3.175m-282.528-37.46c-14.603-8.888-39.363 5.714-55.871 33.015-15.872 26.665-17.777 55.236-3.175 64.124 14.603 8.889 39.364-5.714 55.871-33.015 15.873-26.664 17.142-55.235 3.175-64.124m3.809 71.109c-19.047 29.205-49.522 42.538-68.569 29.84s-19.682-45.713-.635-74.918 49.522-42.538 68.569-29.84c19.047 12.063 19.682 45.713.635 74.918"/><path d="M617.665 214.653h1.27c.635 0 1.27 0 1.27-1.27 0-.635-.635-.635-1.27-.635h-1.27zm-1.27-3.175h3.174c1.905 0 3.174.635 3.174 2.54 0 1.27-.635 1.905-1.905 1.905l1.905 3.174h-1.27l-3.174-3.809h-.635v3.174h-1.27v-6.984zm2.539 8.888c2.539 0 5.079-1.905 5.079-5.079s-2.539-5.079-5.079-5.079-5.079 1.905-5.079 5.079c0 2.54 1.905 5.079 5.079 5.079m0-12.062c3.809 0 6.984 2.54 6.984 6.984 0 3.809-3.175 6.984-6.984 6.984s-6.984-2.54-6.984-6.984 3.175-6.984 6.984-6.984M405.61 94.657c-3.175-4.445-8.889-4.445-8.889-4.445v4.445zm-21.587 0s-3.174-5.714-9.524-5.714v5.714zm-12.063-5.714c-6.984 0-10.793 4.445-10.793 4.445 3.174 1.27 10.793 1.27 10.793 1.27zm-21.586-.635s8.889-12.698 9.524-15.238c0 0-2.54 0-4.445 2.54l1.905-5.08s-3.809 3.809-2.54 10.159l-1.27 1.905s-4.444-2.54-10.793 1.27zm-9.524-4.444c3.81-2.539 17.143-15.872 17.143-15.872 1.905-5.714 3.809-9.523 3.809-9.523s-10.793 6.984-11.428 15.872l-3.809 3.81s-5.079-2.54-11.428 2.54c-.636-.636 5.713 3.173 5.713 3.173m90.79 6.984c-1.27 0-9.523 1.27-17.142 1.905 0 0-.635 0-.635-.635 0-1.905.635-6.984-1.27-11.428v12.698s5.714-.635 12.698-1.27v1.905s-6.984.635-10.159 5.079h-.635c-1.905 0-13.968 1.27-26.031 1.27-12.698 0-27.3-1.27-27.3-1.27s-2.54-4.444-7.619-7.619c-1.905-1.27-22.221-12.063-22.856-12.697-.635-.635 0-1.27.635-.635l.635.635 29.205-23.491.635-1.27s0-.635.635-.635 1.27-.635 1.905-.635v.635c0 .635-1.905 6.984-3.809 17.142-1.905 8.889-.635 12.698-.635 12.698l-.635 1.905s-5.08-.635-8.254 2.539c0 0 6.349 2.54 8.254 3.809l3.809-15.872s3.809-.635 8.253-.635c.635 0 .635 0 .635-.635v-3.174s-6.349 0-10.158 3.81c0 0 1.905-12.063 5.079-22.857 0 0 3.174-.635 5.714-.635V49.58s-3.174 0-5.714 1.27c0 0 1.905-5.714 2.54-8.253.635 0 1.27-.635 2.539-.635v-2.54c0-.635.635-.635.635 0v2.54c1.905 0 3.175 0 3.81.635l.635.635s1.905 5.079 2.54 8.253c0 0-2.54-1.27-6.349-1.27v1.905c3.175 0 5.714.635 5.714.635s.635 0 .635.635 1.27 12.063 4.444 19.047v1.27l-.635 1.905s-4.444-3.175-10.159-3.175v3.81c3.81 0 6.349.635 6.349.635.635 0 .635 0 .635.635s.635 7.619 3.809 17.142h8.889c.635 0 .635 0 .635-.635v-3.81s-5.714 0-8.889 1.27c0 0-1.27-5.079-1.905-8.888 1.27-5.714 2.539-8.254 2.539-8.889l.635-.635c.635 0 3.809-.635 8.254-.635v-3.809s-4.445 0-8.254 2.539c0 0-.635 0-.635-.635 1.27-12.698 3.809-20.951 3.809-21.586s0-.635.635-.635c0 0 1.905-.635 4.445-.635v-.636c-1.905 0-4.445 1.27-4.445 1.27 2.54-5.714 4.445-9.524 4.445-9.524s.635 0 1.27-.635v-5.714h.635s2.539 1.905 4.444 2.54 5.714.635 6.984.635c3.809 0 6.349-.635 6.984 1.905 0 1.27.635 1.905 1.905 1.905s3.174 0 4.444 1.27c.635.635 0 .635 0 .635-1.27-1.27-3.809-.635-4.444-1.27-1.27 0-1.27-1.27-1.905-1.905-.635-2.54-3.174-1.905-6.984-1.905-1.27 0-5.08 0-6.984-.635-1.905-.635-3.809-1.905-4.444-1.905v4.444c2.539 0 4.444.635 4.444.635 2.54 3.81 3.809 8.889 3.809 8.889s-3.809-1.27-8.253-1.27v1.905c3.809 0 8.889.635 8.889.635s2.539 11.428 3.174 21.586c0 0 0 .635 0 0-1.27-.635-5.714-2.539-11.428-2.539v3.809c3.174 0 5.079.635 5.079.635s0 12.698 5.08 20.952h3.809V81.96c0-.635 0 0 0 0s-2.539 6.349-1.27 10.159-.635 0-1.905 0c-.635-.635-2.54-6.349-3.81-12.698 0 0 2.54-1.27 6.984-1.905v-2.54s-3.174 0-6.984 2.54c0-.635-.635-4.445-.635-6.984.635 0 2.54.635 6.349 2.54s-.635-8.253-1.27-12.698v-1.905s1.27-.635 3.174-.635v-1.905s-1.905 0-3.174.635.635-3.809 1.905-6.349.635 0 1.905-.635v-3.809c0-.635.635-.635 1.27 0v3.809c.635 0 1.905.635 1.905.635v.635c.635 1.905 2.54 5.714 2.54 6.984-.635-.635-3.174-.635-4.444-.635v1.905c2.539 0 5.079.635 5.079.635.635 0 .635 0 .635.635s.635 5.079 3.175 9.523l-7.619 6.349h-1.27v2.539s10.793-9.524 11.428-9.524c.001 0 .001 9.524 6.984 21.587 0 0 .635 0 0 0m-39.363-50.792s-1.27 0-1.905.635c0 0-1.905 3.174-3.809 8.253 1.27-.635 2.539-.635 2.539-.635s1.905-4.443 3.175-8.253m-6.984 29.205c1.27-9.523 3.174-18.412 3.174-18.412s-2.539 0-4.444 1.27c0 0-1.27 1.905-1.905 5.079.635 5.08 2.539 10.793 2.539 10.793zm-19.047-18.412s-1.27 0-2.54.635c0 0 2.54-6.349 3.174-6.984 0 0 .635-.635 1.27-.635.001.001-1.269 4.445-1.904 6.984"/></g></svg>