<svg version="1.1" id="Layer_1" xmlns="http://www.w3.org/2000/svg" x="0" y="0" viewBox="0 0 245.2 91.6" xml:space="preserve"><style>.st0{fill:#71b1ca}</style><path class="st0" d="M92.4 19.2v37.3h12V46.3h5.6c4.3 0 7.8-1.3 10.4-3.8s4-5.8 4-9.7-1.3-7.2-3.9-9.7c-2.6-2.5-6.1-3.8-10.4-3.8l-17.7-.1zm16.8 10.7c.9 0 1.7.3 2.3.9.6.6.9 1.3.9 2.1s-.3 1.5-.9 2.1c-.6.6-1.4.8-2.3.8h-4.8V30c0-.1 4.8-.1 4.8-.1zm35.9 10.3h-5.3l2.7-9.3 2.6 9.3zm2.6 9.1l2.1 7.2h12.8L149 19.2h-13.3l-13.6 37.3H135l2.1-7.2h10.6zm26.1-11.5c0-2.5.9-4.7 2.7-6.4 1.8-1.7 4-2.6 6.7-2.6 1 0 2 .2 3 .5s1.8.6 2.4 1c.6.4 1.3.8 1.8 1.3.6.5 1 .8 1.1 1 .2.2.3.4.4.5l7.2-7.5-.6-.8c-.4-.5-1.1-1.1-2-1.9-.9-.7-2-1.5-3.2-2.2-1.2-.7-2.8-1.4-4.6-1.9-1.8-.5-3.8-.8-5.8-.8-5.9 0-10.9 1.9-15 5.8s-6.1 8.5-6.1 13.9 2 10 6.1 13.9c4.1 3.9 9 5.8 15 5.8 2 0 4-.3 5.9-.8 1.9-.5 3.4-1.1 4.6-1.8 1.1-.6 2.2-1.4 3.2-2.2 1-.9 1.7-1.5 1.9-1.8.3-.3.5-.6.6-.8l-7-7.4-.4.4c-.3.3-.7.6-1.2 1s-1.1.8-1.8 1.3c-.7.4-1.6.8-2.6 1.1-1 .3-2 .4-3 .4-2.7 0-4.9-.9-6.7-2.6-1.7-1.7-2.6-3.9-2.6-6.4zm42.1-18.6h-12v37.3h12v-9l3.2-4 8.2 13h13.3l-13.8-21.8 12.8-15.4h-13.3L215.9 32V19.2zM92.4 61.8V76h1.5v-5.3h3.8c1.3 0 2.4-.4 3.3-1.3.9-.8 1.3-1.9 1.3-3.2 0-1.3-.4-2.3-1.3-3.2-.9-.9-1.9-1.3-3.3-1.3l-5.3.1zm5.3 1.4c.9 0 1.7.3 2.2.8.6.6.8 1.3.8 2.2 0 .9-.3 1.7-.8 2.2-.6.6-1.3.8-2.2.8h-3.8v-6.1h3.8zm15.5-1.4V76h1.5v-5.7h4l3.1 5.7h1.7l-3.3-5.9.3-.1c.2-.1.4-.2.7-.4.3-.2.6-.4.9-.7.3-.3.5-.7.7-1.2.2-.5.3-1.1.3-1.7 0-1.2-.4-2.2-1.2-3-.8-.8-1.9-1.2-3.1-1.2h-5.6zm5.7 1.4c.9 0 1.6.3 2.1.8s.8 1.2.8 2.1c0 .9-.3 1.6-.8 2.1s-1.2.8-2.1.8h-4.1v-5.7l4.1-.1zm15.6 12.7h1.5V61.8h-1.5v14.1zM158 61.8v11.4l-8.7-11.4H148V76h1.5V64.5l8.7 11.4h1.3V61.8H158zm11.7 0v1.4h4.4v12.7h1.5V63.2h4.5v-1.4h-10.4zm22.1 12.7v-5.3h6.6v-1.4h-6.6v-4.6h8.2v-1.4h-9.7V76h9.9v-1.4l-8.4-.1zm19.1-12.7V76h1.5v-5.7h4l3.1 5.7h1.7l-3.3-5.9.3-.1c.2-.1.4-.2.7-.4.3-.2.6-.4.9-.7s.5-.7.7-1.2c.2-.5.3-1.1.3-1.7 0-1.2-.4-2.2-1.2-3-.8-.8-1.9-1.2-3.1-1.2h-5.6zm5.7 1.4c.9 0 1.6.3 2.1.8s.8 1.2.8 2.1c0 .9-.3 1.6-.8 2.1s-1.2.8-2.1.8h-4.1v-5.7c0-.1 4.1-.1 4.1-.1zm22.5 8.9c0 .8-.3 1.4-.8 1.9-.6.5-1.4.7-2.4.7-.5 0-.9-.1-1.4-.2-.5-.1-.8-.3-1.1-.4-.3-.1-.5-.3-.7-.5-.2-.2-.4-.3-.4-.4-.1-.1-.1-.1-.1-.2l-.9 1 .2.2c.1.1.3.3.6.5l.9.6c.3.2.8.4 1.3.5.5.1 1.1.2 1.7.2 1.5 0 2.7-.4 3.5-1.1.8-.8 1.3-1.7 1.3-2.9 0-.7-.1-1.3-.4-1.8-.3-.5-.7-.9-1.1-1.1-.5-.3-1-.5-1.5-.7-.5-.2-1.1-.4-1.6-.5-.5-.2-1-.3-1.5-.5s-.8-.5-1.1-.8c-.3-.3-.4-.8-.4-1.2 0-.7.3-1.2.8-1.7.6-.5 1.3-.7 2.2-.7.4 0 .8 0 1.1.1.4.1.7.2.9.3.2.1.4.3.6.4.2.2.3.3.4.3 0 .1.1.1.1.1l1-1-.2-.2-.5-.5c-.2-.2-.5-.4-.8-.5-.3-.2-.7-.3-1.2-.5-.5-.1-.9-.2-1.5-.2-1.4 0-2.5.4-3.3 1.1-.8.8-1.3 1.7-1.3 2.7 0 .7.1 1.3.4 1.8.3.5.7.9 1.1 1.1.5.3 1 .5 1.5.7.5.2 1.1.4 1.6.5.5.2 1 .3 1.5.5s.8.5 1.1.8c.2.6.4 1 .4 1.6zM42 44.7l23.4-13.6-10.5-6-22.8 13.8zM17.6 60.1l23.5 13.4V46.3L17.6 32.8v27.3zm2.3-21.3l17.7 10.4-.3.5-17.7-10.4.3-.5zm0 2.5l17.7 10.4-.3.5-17.7-10.4.3-.5zm0 2.4l7.7 4.5-.3.5-7.7-4.5.3-.5zm-.1-11.9l10.1 5.9 22.8-13.9-10.8-6.2-23.4 13.5z"/><path class="st0" d="M73.1 20.5L48.3 6.2c-3.9-2.3-8.7-2.3-12.6 0L10.8 20.5c-3.9 2.3-6.3 6.4-6.3 10.9v28.7c0 4.5 2.4 8.7 6.3 10.9l24.8 14.3c3.9 2.3 8.7 2.3 12.6 0L73 71c3.9-2.3 6.3-6.4 6.3-10.9V31.4c.1-4.5-2.3-8.6-6.2-10.9zm-4.9 40.1c0 .3-.2.7-.5.8L42.6 75.9h-.2c-.1.1-.2.1-.4.1-.1 0-.2 0-.3-.1h-.1s-.1 0-.1-.1L16.2 61.4c-.3-.2-.5-.5-.5-.8V30.8c0-.1.1-.1.1-.2l.1-.1c0-.1.1-.1.2-.1l.1-.1 25.3-14.6c.3-.2.6-.2 1 0l25.3 14.6c.1 0 .2.1.2.2l.1.1.1.1c0 .1 0 .1.1.2v29.7z"/><path class="st0" d="M43 46.3v27.1L66.3 60V32.7L43 46.3zm13.8 2.4l-.3-.5 7.7-4.5.3.5-7.7 4.5zm-10 3.4l-.3-.5 17.7-10.4.3.5-17.7 10.4zm0-2.4l-.3-.5 17.7-10.4.3.5-17.7 10.4z"/></svg>