<svg viewBox="0 0 800 300" xmlns="http://www.w3.org/2000/svg"><g fill="#fff"><path d="M454.56 84c-.027 1.644-.077 3.288-.078 4.932-.004 35.599-.003 71.199-.003 106.798v3.292h-17.238v-7.161c-13.38 9.762-27.591 12.725-43.055 8.142-10.51-3.115-18.804-9.41-24.947-18.462-12.337-18.18-10.299-42.048 5.215-58.506 14.037-14.891 40.285-20.624 62.452-4.232.072-.854.183-1.57.184-2.287.013-7.016.206-14.039-.058-21.045-.195-5.167 1.344-9.085 6.087-11.472L454.56 84zm-74.441 71.316c-.018 16.075 12.801 29.033 28.73 29.043 15.871.009 29.106-13.203 28.985-28.936-.122-15.791-13.14-28.766-28.877-28.782-15.879-.015-28.821 12.853-28.838 28.675zM45.32 111.56c2.846.073 5.693.173 8.54.211 2.758.036 5.517.008 8.486.008v7.473c11.329-8.511 23.593-11.947 37.116-9.68 13.605 2.281 24.248 9.367 31.679 20.996 11.457 17.929 9.056 41.349-5.332 56.879-13.018 14.051-39.715 22.095-63.328 4.604v7.871c0 5.455-.221 10.922.064 16.363.269 5.129-1.59 8.68-6.305 10.715H45.32V111.56zm45.539 15.081c-15.826-.023-28.876 12.892-28.898 28.599-.022 16.058 12.782 29.078 28.636 29.118 15.941.041 28.995-12.855 29.081-28.729.086-15.829-12.973-28.965-28.819-28.988zM756.68 104.28c-.341.639-.746 1.251-1.013 1.92-2.797 6.992-9.81 11.187-17.156 10.237-7.631-.987-13.275-6.628-14.266-14.259-.952-7.329 3.259-14.374 10.236-17.164.668-.267 1.281-.672 1.92-1.014h7.28c2.127 1.002 4.367 1.821 6.355 3.047 3.683 2.271 5.283 6.062 6.645 9.953l-.001 7.28zm-2.081-4.027c-.006-7.883-6.302-14.171-14.188-14.172-7.877 0-14.145 6.323-14.108 14.231.036 7.738 6.32 14.033 14.041 14.066 7.862.033 14.261-6.308 14.255-14.125zm-529.77 18.685v-6.989h17.147v87.105h-17.122v-7.151c-12.311 9.184-25.592 12.232-40.069 8.907-10.849-2.492-19.665-8.402-26.403-17.285-13.445-17.727-12.278-42.637 2.691-59.339 14.336-15.996 41.342-21.932 63.756-5.248zm.63 36.948c.165-15.768-12.564-29.044-28.041-29.245-16.258-.211-29.39 12.423-29.596 28.473-.202 15.728 12.568 29.045 28.044 29.245 16.263.209 29.425-12.455 29.593-28.473zm490.035-43.939v87.13h-17.129v-7.253c-12.951 9.604-26.872 12.596-42.014 8.515-10.196-2.748-18.444-8.594-24.776-17.056-12.776-17.073-12.124-41.217 1.534-57.537 3.932-4.699 8.588-8.531 14.009-11.413a45.793 45.793 0 0117.024-5.176c6.087-.614 12.214-.413 17.955 1.731 5.52 2.062 10.776 4.832 16.189 7.309v-6.249l17.208-.001zm-45.561 14.694c-15.801.024-28.733 12.968-28.774 28.801-.041 15.92 12.966 28.926 28.919 28.916 15.88-.01 28.834-13.083 28.798-29.061-.036-15.724-13.121-28.68-28.943-28.656zM559.874 155.77c-.863 27.275-21.798 47.272-48.978 46.2-24.548-.968-44.722-21.259-44.208-47.258.531-26.87 22.2-46.936 49.162-45.676 24.54 1.147 43.934 21.343 44.024 46.734zm-18.817-.238c.025-15.161-12.429-27.792-27.461-27.851-15.562-.061-28.435 12.652-28.267 27.916.167 15.173 12.66 27.685 27.681 27.722 15.481.038 28.022-12.387 28.047-27.787zm-192.163 43.574h-18.615v-2.855c0-13.433.004-26.865-.001-40.298-.005-15.768-12.311-28.271-27.817-28.271-15.503 0-27.811 12.509-27.818 28.284-.006 13.346-.001 26.692-.001 40.038v3.031H255.92v-43.373c.002-24.251 18.264-44.379 42.271-46.594 23.957-2.21 45.72 14.298 50.128 38.075.393 2.12.645 4.299.653 6.452.056 14.732.029 29.465.025 44.197-.001.341-.053.683-.103 1.314zm241.387-.01h-18.722v-44.731c.002-23.991 14.316-40.66 38.133-44.338 3.299-.509 6.635-.783 10.154-1.189v18.522c-3.716.654-7.355.986-10.815 1.959-12.034 3.386-18.706 12.342-18.741 24.892-.039 13.944-.009 27.887-.009 41.831z"/><path d="M743.105 102.427l4.528 6.788c-1.81.663-2.965.401-3.821-1.161-.704-1.283-1.683-2.418-2.361-3.712-.999-1.907-2.403-2.528-4.75-1.736 0 1.625-.071 3.331.019 5.029.098 1.845-.675 2.265-2.381 1.679V90.951c2.893 0 5.731-.205 8.524.06 2.562.243 4.188 1.905 4.661 4.517.472 2.606-.545 4.768-2.858 6.112-.443.258-.917.465-1.561.787zm-6.252-9.238v6.813c1.832 0 3.686.425 5.175-.129 1.279-.476 2.778-1.939 3.037-3.201.364-1.77-.958-3.281-2.997-3.453-1.679-.143-3.381-.03-5.215-.03z"/></g></svg>