<svg viewBox="0 0 800 300" xmlns="http://www.w3.org/2000/svg"><g clip-rule="evenodd" fill="#fff" fill-rule="evenodd"><path d="M103.492 103.526v65.421c0 4.73.236 7.649.701 8.75.845 2.664 3.563 3.986 8.144 3.986h3.055v4.439H79.461v-4.439h3.056c3.307 0 5.603-.657 6.899-1.987 1.295-1.331 1.946-4.917 1.946-10.75v-65.421h-2.676c-4.201 0-7.98 1.217-11.329 3.649-5.045 3.7-7.972 11.12-8.779 22.249h-3.815l.701-30.335h64.349l.515 30.335h-3.893c-1.617-12.773-5.439-20.731-11.471-23.88-2.599-1.345-5.761-2.018-9.498-2.018h-1.974z"/><path d="M64.756 137.353h18.197v18.197H64.756zm47.365 0h18.198v18.197h-18.198zm54.601 0h18.198v18.197h-18.198zm54.601 0h18.199v18.197h-18.199zm377.285 0h18.198v18.197h-18.198zm54.593 0h18.206v18.197h-18.206zm54.602 0H726v18.197h-18.197zm-418.081 48.77h-4.014l-22.973-79.163v56.92c0 5.812.237 9.483.702 11.001 1.359 4.544 4.365 6.803 9.01 6.803h1.716v4.439h-27.065v-4.439h2.126c3.255 0 5.569-1.345 6.942-4.057 1.11-2.203 1.667-6.777 1.667-13.725v-50.258c0-2.999-.13-4.995-.388-5.968-.515-2.033-1.645-3.32-3.405-3.879-1.023-.336-2.526-.507-4.502-.507h-2.44v-4.201h25.261l18.506 63.797 18.979-63.797h25.689v4.201h-1.738c-3.384 0-5.733.672-7.041 2.002-1.303 1.333-1.954 4.925-1.954 10.772v52.854c0 4.702.229 7.627.709 8.766.809 2.669 3.57 4 8.286 4h1.738v4.439h-32.896v-4.439h1.146c3.362 0 5.73-.736 7.091-2.225 1.195-1.308 1.79-4.829 1.79-10.554v-61.959zm90.046-49.829c2.018 4.479 3.026 11.064 3.026 19.729 0 18.356-4.615 27.538-13.846 27.538-9.283 0-13.92-9.269-13.92-27.789 0-8.465 1.011-14.948 3.026-19.478 2.319-5.203 5.863-7.802 10.628-7.802 5.073 0 8.767 2.599 11.086 7.802zm-30.821-2.455c-4.351 5.889-6.52 13.323-6.52 22.311 0 9.124 2.217 16.517 6.648 22.184 5.024 6.44 11.643 9.654 19.874 9.654 8.171 0 14.778-3.214 19.8-9.654 4.43-5.667 6.648-13.102 6.648-22.312 0-9.245-2.217-16.68-6.648-22.314-5.067-6.432-11.564-9.653-19.486-9.653-8.731.001-15.5 3.264-20.316 9.784zm96.678 21.698c0 18.212-4.295 27.314-12.867 27.314-4.945 0-8.603-2.54-10.964-7.635-2.16-4.63-3.232-11.078-3.232-19.364 0-8.366 1.26-14.792 3.799-19.3 2.662-4.752 6.233-7.128 10.712-7.128 8.365-.001 12.552 8.708 12.552 26.113zM419.49 97.923l-18.671.937v4.193h.974c2.454 0 4.165.515 5.109 1.532 1.082 1.152 1.617 4.107 1.617 8.866v59.782c0 5.869-.206 9.425-.623 10.656-.229.68-.486 1.424-.758 2.234h4.331c2.548-4.123 4.306-6.192 5.288-6.192.629 0 1.382.337 2.232.994 2.247 1.789 3.694 2.893 4.331 3.306 3.227 2.041 6.769 3.057 10.633 3.057 7.944 0 14.141-3.544 18.6-10.649 3.777-6.033 5.673-13.238 5.673-21.612 0-9.796-2.611-17.596-7.828-23.385-4.028-4.43-9.203-6.65-15.514-6.65-7.423 0-12.553 3.171-15.394 9.512zm65.063 27.07v46.538c0 4.822.521 7.828 1.575 9.023.922 1.073 2.576 1.602 4.979 1.602h2.075v3.966h-28.229v-3.966h2.074c2.398 0 4.094-.564 5.082-1.696.98-1.129 1.475-4.107 1.475-8.937v-31.13c0-4.824-.537-7.814-1.61-8.965-.937-1.025-2.633-1.539-5.073-1.539h-1.481v-4.007zm-6.289-26.597c1.902 0 3.541.707 4.923 2.124 1.373 1.424 2.069 3.086 2.069 4.988 0 1.99-.695 3.68-2.069 5.053-1.382 1.382-3.063 2.061-5.051 2.061-1.956 0-3.624-.693-5.025-2.09-1.395-1.403-2.097-3.07-2.097-5.024 0-1.988.711-3.671 2.135-5.051 1.414-1.376 3.124-2.061 5.115-2.061zm39.165-.473v73.609c0 4.822.521 7.828 1.566 9.023.923 1.073 2.584 1.602 4.98 1.602h2.077v3.966H497.82v-3.966h2.083c2.391 0 4.086-.564 5.074-1.696.982-1.129 1.48-4.107 1.48-8.929v-58.273c0-4.73-.535-7.7-1.608-8.895-.946-1.025-2.635-1.54-5.074-1.54h-1.482v-4.015zm27.2 53.198c.043-4.365.487-8.1 1.346-11.214 2.103-7.613 5.674-11.415 10.741-11.415 4.45 0 7.664 2.828 9.639 8.496 1.331 3.85 1.996 8.558 1.996 14.133zm31.759-13.518c-4.51-9.024-11.25-13.547-20.224-13.547-6.047 0-11.206 2.411-15.506 7.228-5.446 6.098-8.164 14.211-8.164 24.36 0 11.035 2.718 19.478 8.164 25.312 4.386 4.685 9.997 7.032 16.845 7.032 9.317 0 16.716-5.509 22.206-16.536l-3.9-2.047c-1.66 3.443-3.327 6.141-4.98 8.094-3.026 3.571-6.8 5.352-11.315 5.352-5.789 0-9.881-2.854-12.264-8.564-1.711-4.044-2.577-10.291-2.62-18.728h35.773c-.25-7.114-1.597-13.105-4.015-17.956z"/></g></svg>