<svg viewBox="0 0 800 300" xmlns="http://www.w3.org/2000/svg"><g fill="#fff"><path d="M488.856 191.323h-.254c-5.916 7.46-11.834 11.701-21.343 11.701-11.959 0-20.431-6.685-20.431-18.899 0-21.858 24.421-23.53 40.616-23.53h6.042c.514-1.798.514-3.725.514-5.66 0-6.681-7.201-8.611-13.243-8.611-7.585 0-14.915 1.93-21.733 5.137l2.444-13.757c7.332-2.565 14.792-3.977 22.511-3.977 13.241 0 25.708 4.877 25.708 20.434 0 8.874-6.549 34.854-8.099 47.326h-14.525zm-16.833-.893c12.846 0 16.832-8.88 19.542-19.553h-6.046c-8.355 0-22.249 1.414-22.249 12.603 0 4.636 4.374 6.95 8.753 6.95zM42.209 135.206h12.476l2.954-13.618 18.513-6.053-4.242 19.671h15.433l-2.697 12.606H69.212l-6.297 28.928a27.035 27.035 0 00-.776 6.434c0 3.977 2.704 6.425 6.562 6.425 3.088 0 6.165-.648 8.36-1.548l-2.964 13.376c-2.958.64-6.299 1.54-9.257 1.54-11.695 0-19.929-4.627-19.929-17.354 0-5.144 1.028-10.162 2.188-15.436l4.881-22.364H39.505zm52.214 0h17.224l-14.145 66.222H80.274zm6.299-28.538h17.224l-3.595 16.455H97.118zm62.958 43.717c-3.353-2.192-7.844-3.348-12.603-3.348-13.759 0-21.472 12.859-21.472 25.337 0 8.604 2.825 17.222 14.65 17.222 4.25 0 9.52-1.163 14.019-3.339l-1.926 13.631c-5.27 2.565-10.931 3.081-16.585 3.081-17.103 0-28.162-11.439-28.162-28.544 0-23.149 15.301-40.757 39.087-40.757 6.434 0 12.604 1.16 17.238 2.572zm18.896-45.391h17.227l-11.441 54.262h.256l24.046-24.049h22.368l-31.756 30.223 19.929 35.999h-19.412l-17.103-35.106h-.263l-7.457 35.106h-16.836zm114.563 30.212h12.471l2.962-13.618 18.517-6.053-4.239 19.671h15.422l-2.706 12.606h-15.424l-6.299 28.928a27.344 27.344 0 00-.774 6.434c0 3.977 2.7 6.425 6.558 6.425 3.088 0 6.176-.648 8.358-1.548l-2.969 13.376c-2.947.64-6.293 1.54-9.249 1.54-11.697 0-19.929-4.627-19.929-17.354 0-5.144 1.034-10.162 2.186-15.436l4.883-22.364H294.44z"/><path d="M291.373 158.869c0-16.852-10.801-25.202-27.126-25.202-21.731 0-37.669 19.803-37.669 40.369 0 19.679 12.859 28.928 31.886 28.928 7.069 0 14.401-1.667 21.084-3.721l2.186-13.634c-6.43 2.962-13.245 4.755-20.31 4.755-11.026 0-17.467-3.911-18.294-14.326h-.007c-.033-.604-.088-1.189-.088-1.824v-.561h.009a35.867 35.867 0 012.801-13.131c3.311-8.43 7.996-14.255 18.144-14.255 7.208 0 10.932 3.986 10.932 11.057 0 1.548-.134 2.964-.388 4.506H250.96c-1.531 5.195-1.791 8.686-1.831 11.823h40.578c1.024-4.887 1.666-9.773 1.666-14.784zm58.338-16.331a1013.99 1013.99 0 001.409-7.332h16.073l-1.544 8.876h.252c4.632-6.816 12.217-10.415 20.315-10.415 7.846 0 15.943 4.625 16.849 12.597h.252c4.378-8.611 14.015-12.597 23.27-12.597 9.902 0 18.396 8.099 18.396 18.129 0 5.914-1.548 12.604-2.962 17.996l-6.939 31.636H417.85l6.95-32.28c.889-3.984 2.175-10.155 2.175-14.139 0-4.886-3.723-7.972-8.093-7.972-11.973 0-14.922 13.887-17.103 22.887l-6.816 31.504H377.73l6.946-32.28c.904-3.984 2.184-10.155 2.184-14.139 0-4.886-3.725-7.972-8.101-7.972-11.697 0-14.913 14.02-17.103 22.887l-6.813 31.504h-17.227zm211.153 6.153c-1.846-1.006-6.604-2.428-11.492-2.428-5.139 0-11.565 1.421-11.565 6.686 0 8.358 22.372 11.452 22.372 27.649 0 17.226-15.039 22.37-29.836 22.37-6.935 0-13.885-1.026-20.184-3.984l3.726-13.759c4.888 2.706 9.776 5.142 16.457 5.142 5.792 0 11.831-1.934 11.831-7.321 0-10.669-22.368-11.701-22.368-28.29 0-15.561 15.043-21.086 28.674-21.086 6.295 0 12.731 1.16 16.119 2.036zm11.004-13.485h12.475l2.956-13.618 18.523-6.053-4.239 19.671h15.424l-2.709 12.606h-15.416l-6.299 28.928a27.137 27.137 0 00-.776 6.434c0 3.977 2.698 6.425 6.557 6.425 3.088 0 6.174-.648 8.349-1.548l-2.947 13.376c-2.954.64-6.302 1.54-9.26 1.54-11.699 0-19.931-4.627-19.931-17.354 0-5.144 1.034-10.162 2.19-15.436l4.888-22.364H569.18zm116.808 8.876c.518-2.83 1.034-5.79 1.555-8.876h16.457l-2.32 12.48h.258c3.09-7.199 11.578-14.019 19.545-14.019 2.19 0 4.506.123 6.56.638l-3.604 16.851c-1.923-.648-4.372-1.032-6.557-1.032-12.218 0-18.131 10.932-20.314 21.601l-6.167 29.702h-17.24zm-11.944 14.787c0-16.852-10.806-25.202-27.13-25.202-21.731 0-37.678 19.803-37.678 40.369 0 19.679 12.859 28.928 31.888 28.928 7.065 0 14.406-1.667 21.089-3.721l2.182-13.634c-6.43 2.962-13.237 4.755-20.312 4.755-11.028 0-17.465-3.911-18.296-14.326h-.015c-.029-.604-.093-1.189-.093-1.824 0-.119.018-.247.026-.371 0-.059-.015-.123-.015-.19h.016c.066-4.535 1.065-9.004 2.795-13.131 3.313-8.43 7.993-14.255 18.144-14.255 7.199 0 10.932 3.986 10.932 11.057 0 1.548-.134 2.964-.388 4.506h-23.579c-1.522 5.195-1.791 8.686-1.829 11.823h40.587c1.03-4.887 1.676-9.773 1.676-14.784zm78.369-27.616c8.201 0 14.899 6.677 14.899 14.893 0 8.201-6.696 14.886-14.899 14.886-8.198 0-14.895-6.685-14.895-14.886.001-8.216 6.698-14.893 14.895-14.893zm.048 27.56c6.835 0 12.004-5.527 12.004-12.667 0-7.129-5.166-12.659-12.004-12.659-6.926 0-12.092 5.527-12.092 12.659 0 7.14 5.166 12.667 12.092 12.667zm-5.73-21.412h6.674c4.012 0 5.978 1.614 5.978 4.917 0 2.804-1.769 4.822-4.495 4.822l4.967 7.711h-3.024l-4.873-7.711h-2.389v7.711h-2.837v-17.45zm2.836 7.505h3.377c2.193 0 3.609-.45 3.609-2.711 0-1.983-1.78-2.568-3.609-2.568h-3.377z"/></g></svg>